<svg width="16" height="12" viewBox="0 0 16 12" fill="none" xmlns="http://www.w3.org/2000/svg">
  <path
    d="M15 6.8C15.4418 6.8 15.8 6.44183 15.8 6C15.8 5.55817 15.4418 5.2 15 5.2L15 6.8ZM0.434315 5.43432C0.121895 5.74674 0.121895 6.25327 0.434315 6.56569L5.52548 11.6569C5.8379 11.9693 6.34444 11.9693 6.65686 11.6569C6.96927 11.3444 6.96927 10.8379 6.65686 10.5255L2.13137 6L6.65685 1.47452C6.96927 1.1621 6.96927 0.655567 6.65685 0.343148C6.34443 0.0307283 5.8379 0.0307284 5.52548 0.343148L0.434315 5.43432ZM15 5.2L1 5.2L1 6.8L15 6.8L15 5.2Z"
    fill="currentColor" />
</svg>
