<svg width="24" height="16" viewBox="0 0 24 16" fill="none" xmlns="http://www.w3.org/2000/svg">
  <path fill-rule="evenodd" clip-rule="evenodd"
    d="M2.39236 4.19554C2.39236 4.01638 2.47637 3.84455 2.62592 3.71785C2.77547 3.59116 2.97831 3.51999 3.18981 3.51999H3.98726C4.19876 3.51999 4.40159 3.59116 4.55114 3.71785C4.70069 3.84455 4.78471 4.01638 4.78471 4.19554V5.54666H6.37961C6.59111 5.54666 6.79395 5.61783 6.9435 5.74452C7.09305 5.87121 7.17707 6.04304 7.17707 6.22221V6.89777C7.17707 7.07694 7.09305 7.24877 6.9435 7.37546C6.79395 7.50215 6.59111 7.57332 6.37961 7.57332H4.78471V8.92443C4.78471 9.1036 4.70069 9.27543 4.55114 9.40212C4.40159 9.52881 4.19876 9.59999 3.98726 9.59999H3.18981C2.97831 9.59999 2.77547 9.52881 2.62592 9.40212C2.47637 9.27543 2.39236 9.1036 2.39236 8.92443V7.57332H0.797452C0.585954 7.57332 0.383119 7.50215 0.233568 7.37546C0.084017 7.24877 0 7.07694 0 6.89777V6.22221C0 6.04304 0.084017 5.87121 0.233568 5.74452C0.383119 5.61783 0.585954 5.54666 0.797452 5.54666H2.39236V4.19554Z"
    fill="currentColor" />
  <path fill-rule="evenodd" clip-rule="evenodd"
    d="M22.9882 12.2857H22.6509V14.2857H22.9882C23.2565 14.2857 23.5139 14.376 23.7037 14.5368C23.8934 14.6975 24 14.9155 24 15.1429C24 15.3702 23.8934 15.5882 23.7037 15.7489C23.5139 15.9097 23.2565 16 22.9882 16H11.6897C10.84 16 10.025 15.714 9.42412 15.205C8.82324 14.696 8.48567 14.0056 8.48567 13.2857V2.57143C8.48567 1.88944 8.80547 1.23539 9.37472 0.753154C9.94397 0.270918 10.716 0 11.5211 0L20.9646 0C21.7696 0 22.5417 0.270918 23.111 0.753154C23.6802 1.23539 24 1.88944 24 2.57143V11.4286C24 11.6559 23.8934 11.8739 23.7037 12.0347C23.5139 12.1954 23.2565 12.2857 22.9882 12.2857ZM11.6897 12.2857H20.6273V14.2857H11.6897C11.3766 14.2857 11.0764 14.1804 10.855 13.9928C10.6336 13.8053 10.5093 13.5509 10.5093 13.2857C10.5093 13.0205 10.6336 12.7661 10.855 12.5786C11.0764 12.3911 11.3766 12.2857 11.6897 12.2857ZM16.4735 3.23314C16.3023 3.20424 16.1257 3.20787 15.9564 3.24376C15.787 3.27965 15.6292 3.34691 15.4942 3.44069C15.3592 3.53448 15.2505 3.65246 15.1758 3.78613C15.1012 3.9198 15.0624 4.06583 15.0624 4.21371C15.0624 4.40315 14.9736 4.58484 14.8154 4.71879C14.6573 4.85274 14.4429 4.928 14.2192 4.928C13.9956 4.928 13.7811 4.85274 13.623 4.71879C13.4649 4.58484 13.3761 4.40315 13.3761 4.21371C13.3761 3.76422 13.5233 3.32354 13.8014 2.94074C14.0796 2.55794 14.4776 2.24804 14.9513 2.04554C15.425 1.84304 15.9558 1.75588 16.4845 1.79378C17.0132 1.83167 17.5191 1.99312 17.946 2.26016C18.3728 2.5272 18.7037 2.88934 18.902 3.30628C19.1002 3.72322 19.158 4.17859 19.0689 4.6217C18.9797 5.06481 18.7472 5.47826 18.3971 5.81604C18.047 6.15381 17.5931 6.40265 17.086 6.53486C17.0805 6.7243 16.9863 6.90411 16.8243 7.03474C16.6622 7.16538 16.4456 7.23613 16.2219 7.23143C15.9983 7.22673 15.786 7.14697 15.6318 7.00969C15.4776 6.87242 15.3941 6.68887 15.3997 6.49943V5.928C15.3997 5.53371 15.7774 5.21371 16.2428 5.21371C16.5356 5.21325 16.8177 5.12066 17.0344 4.95391C17.251 4.78716 17.3869 4.55815 17.4154 4.31134C17.444 4.06454 17.3633 3.81754 17.189 3.61829C17.0147 3.41905 16.7606 3.28179 16.4735 3.23314ZM16.2428 10.1531C15.9298 10.1531 15.6295 10.0478 15.4081 9.86025C15.1868 9.67271 15.0624 9.41836 15.0624 9.15314C15.0624 8.88793 15.1868 8.63357 15.4081 8.44604C15.6295 8.2585 15.9298 8.15314 16.2428 8.15314C16.5559 8.15314 16.8562 8.2585 17.0775 8.44604C17.2989 8.63357 17.4233 8.88793 17.4233 9.15314C17.4233 9.41836 17.2989 9.67271 17.0775 9.86025C16.8562 10.0478 16.5559 10.1531 16.2428 10.1531Z"
    fill="currentColor" />
</svg>
