<svg width="12" height="12" viewBox="0 0 12 12" fill="none" xmlns="http://www.w3.org/2000/svg">
  <path
    d="M11.0769 0H0.923077C0.678262 0 0.443473 0.114935 0.270363 0.31952C0.0972524 0.524105 0 0.801582 0 1.09091V10.9091C0 11.1984 0.0972524 11.4759 0.270363 11.6805C0.443473 11.8851 0.678262 12 0.923077 12H11.0769C11.3217 12 11.5565 11.8851 11.7296 11.6805C11.9027 11.4759 12 11.1984 12 10.9091V1.09091C12 0.801582 11.9027 0.524105 11.7296 0.31952C11.5565 0.114935 11.3217 0 11.0769 0ZM10.4804 3.11318L4.94192 9.65864C4.89906 9.70935 4.84816 9.74958 4.79213 9.77703C4.7361 9.80448 4.67604 9.81861 4.61538 9.81861C4.55473 9.81861 4.49467 9.80448 4.43864 9.77703C4.38261 9.74958 4.33171 9.70935 4.28885 9.65864L1.98115 6.93136C1.89455 6.82901 1.8459 6.6902 1.8459 6.54545C1.8459 6.40071 1.89455 6.26189 1.98115 6.15955C2.06776 6.0572 2.18522 5.9997 2.30769 5.9997C2.43017 5.9997 2.54763 6.0572 2.63423 6.15955L4.61538 8.50159L9.82731 2.34136C9.91391 2.23901 10.0314 2.18151 10.1538 2.18151C10.2763 2.18151 10.3938 2.23901 10.4804 2.34136C10.567 2.44371 10.6156 2.58253 10.6156 2.72727C10.6156 2.87202 10.567 3.01083 10.4804 3.11318Z"
    fill="#9C9C9C" />
</svg>
