<svg width="18" height="9" viewBox="0 0 18 9" fill="none" xmlns="http://www.w3.org/2000/svg">
  <path
    d="M0.471074 0.39915C0.321745 0.525602 0.203274 0.675804 0.122441 0.841157C0.0416077 1.00651 0 1.18377 0 1.36278C0 1.5418 0.0416077 1.71905 0.122441 1.88441C0.203274 2.04976 0.321745 2.19996 0.471074 2.32641L7.86472 8.60027C8.01374 8.72698 8.19075 8.82751 8.38562 8.8961C8.58048 8.96469 8.78938 9 9.00034 9C9.21131 9 9.4202 8.96469 9.61507 8.8961C9.80993 8.82751 9.98694 8.72698 10.136 8.60027L17.5296 2.32641C17.6787 2.19987 17.797 2.04964 17.8778 1.8843C17.9585 1.71896 18 1.54174 18 1.36278C18 1.18382 17.9585 1.00661 17.8778 0.841268C17.797 0.675928 17.6787 0.525696 17.5296 0.39915C17.3805 0.272604 17.2034 0.172223 17.0086 0.103737C16.8137 0.0352507 16.6049 0 16.394 0C16.1831 0 15.9742 0.0352507 15.7794 0.103737C15.5845 0.172223 15.4075 0.272604 15.2584 0.39915L8.99229 5.70254L2.74232 0.39915C2.11411 -0.133923 1.08318 -0.120255 0.471074 0.39915Z"
    fill="#9C9C9C" />
</svg>