<svg width="13" height="13" viewBox="0 0 8 8" fill="none" xmlns="http://www.w3.org/2000/svg">
  <path fill-rule="evenodd" clip-rule="evenodd"
    d="M3.53447 1.34888H0.849631C0.38021 1.34888 0 1.75203 0 2.24864V6.74658C0 7.24362 0.38021 7.64634 0.849631 7.64634H5.5226C5.99202 7.64634 6.37223 7.24362 6.37223 6.74658V3.45426L4.70951 5.2147C4.56431 5.36997 4.37521 5.47726 4.16744 5.52227L3.02851 5.76356C2.28508 5.92074 1.63002 5.22702 1.7787 4.44026L2.0064 3.23421C2.04761 3.0167 2.14872 2.81661 2.29698 2.65986L3.53447 1.34888Z"
    fill="currentColor" />
  <path fill-rule="evenodd" clip-rule="evenodd"
    d="M7.15676 0.5595C7.1143 0.450517 7.05127 0.350715 6.97112 0.265528C6.89262 0.182017 6.79814 0.11513 6.69329 0.068838C6.58991 0.0234407 6.47824 0 6.36533 0C6.25243 0 6.14075 0.0234407 6.03738 0.068838C5.93253 0.11513 5.83805 0.182017 5.75955 0.265528L5.5276 0.511071L6.73917 1.79401L6.97112 1.54805C7.05134 1.46291 7.11437 1.3631 7.15676 1.25407C7.24411 1.03079 7.24411 0.782786 7.15676 0.5595ZM6.13891 2.42996L4.92691 1.1466L2.89756 3.29616C2.86762 3.32806 2.84743 3.36786 2.83936 3.41086L2.61166 4.61734C2.58193 4.77452 2.71319 4.91301 2.86145 4.88157L4.00081 4.6407C4.04234 4.63166 4.08013 4.61018 4.10914 4.57911L6.13891 2.42996Z"
    fill="currentColor" />
</svg>