<svg width="24" height="16" viewBox="0 0 24 16" fill="none" xmlns="http://www.w3.org/2000/svg">
  <path fill-rule="evenodd" clip-rule="evenodd"
    d="M2.05405 4.42702C2.05405 4.25136 2.12619 4.0829 2.25459 3.9587C2.383 3.83449 2.55715 3.76471 2.73874 3.76471H3.42342C3.60501 3.76471 3.77917 3.83449 3.90757 3.9587C4.03597 4.0829 4.10811 4.25136 4.10811 4.42702V5.75164H5.47748C5.65907 5.75164 5.83322 5.82142 5.96162 5.94562C6.09003 6.06983 6.16216 6.23829 6.16216 6.41395V7.07626C6.16216 7.25191 6.09003 7.42037 5.96162 7.54458C5.83322 7.66879 5.65907 7.73857 5.47748 7.73857H4.10811V9.06318C4.10811 9.23884 4.03597 9.4073 3.90757 9.53151C3.77917 9.65571 3.60501 9.72549 3.42342 9.72549H2.73874C2.55715 9.72549 2.383 9.65571 2.25459 9.53151C2.12619 9.4073 2.05405 9.23884 2.05405 9.06318V7.73857H0.684685C0.503095 7.73857 0.328943 7.66879 0.200539 7.54458C0.0721362 7.42037 0 7.25191 0 7.07626V6.41395C0 6.23829 0.0721362 6.06983 0.200539 5.94562C0.328943 5.82142 0.503095 5.75164 0.684685 5.75164H2.05405V4.42702Z"
    fill="currentColor" />
  <path fill-rule="evenodd" clip-rule="evenodd"
    d="M15.6812 8.91271e-08C16.1476 -0.000141848 16.5969 0.16925 16.9389 0.47422C17.2809 0.779189 17.4904 1.1972 17.5254 1.64444L17.53 1.77778V14.2222H18.4545V5.77778C18.4544 5.67376 18.4923 5.57302 18.5616 5.4931C18.6309 5.41319 18.7271 5.35917 18.8335 5.34045L18.9167 5.33333H20.3033C20.7698 5.33319 21.219 5.50258 21.5611 5.80755C21.9031 6.11252 22.1126 6.53053 22.1476 6.97778L22.1522 7.11111V14.2222H23.0766C23.3122 14.2225 23.5388 14.3092 23.7102 14.4648C23.8815 14.6203 23.9846 14.8328 23.9984 15.059C24.0122 15.2852 23.9357 15.5079 23.7845 15.6816C23.6332 15.8554 23.4187 15.967 23.1848 15.9938L23.0766 16H6.43692C6.2013 15.9997 5.97468 15.913 5.80335 15.7575C5.63202 15.6019 5.52892 15.3894 5.51511 15.1632C5.5013 14.937 5.57783 14.7143 5.72906 14.5406C5.88028 14.3669 6.0948 14.2552 6.32876 14.2284L6.43692 14.2222H7.36135V1.77778C7.3612 1.32927 7.53737 0.897274 7.85453 0.568402C8.17169 0.23953 8.60641 0.038083 9.07154 0.00444464L9.2102 8.91271e-08H15.6812ZM13.8323 10.6667H11.0591V12.4444H13.8323V10.6667ZM13.8323 7.11111H11.0591V8.88889H13.8323V7.11111ZM13.8323 3.55556H11.0591V5.33333H13.8323V3.55556Z"
    fill="currentColor" />
</svg>
