<svg width="20" height="18" viewBox="0 0 20 18" fill="none" xmlns="http://www.w3.org/2000/svg">
  <path
    d="M10.2324 3.08738C10.1704 3.0313 10.0879 3 10.0021 3C9.91627 3 9.83377 3.0313 9.77176 3.08738L2.10412 10.0125C2.07156 10.042 2.04565 10.0773 2.02797 10.1165C2.01029 10.1557 2.0012 10.1979 2.00125 10.2405L2 16.74C2 17.0741 2.14042 17.3946 2.39036 17.6309C2.64031 17.8672 2.9793 18 3.33278 18H7.33528C7.51201 18 7.68151 17.9336 7.80648 17.8155C7.93146 17.6973 8.00167 17.5371 8.00167 17.37V12.0148C8.00167 11.9312 8.03677 11.8511 8.09926 11.792C8.16174 11.733 8.24649 11.6998 8.33486 11.6998H11.6668C11.7552 11.6998 11.8399 11.733 11.9024 11.792C11.9649 11.8511 12 11.9312 12 12.0148V17.37C12 17.5371 12.0702 17.6973 12.1952 17.8155C12.3202 17.9336 12.4897 18 12.6664 18H16.6672C17.0207 18 17.3597 17.8672 17.6096 17.6309C17.8596 17.3946 18 17.0741 18 16.74V10.2405C18.0001 10.1979 17.991 10.1557 17.9733 10.1165C17.9556 10.0773 17.9297 10.042 17.8971 10.0125L10.2324 3.08738Z"
    fill="currentColor" />
  <path
    d="M19.7879 8.83871L16.6712 5.85734V1.3332C16.6712 1.15641 16.601 0.986855 16.476 0.861844C16.3509 0.736832 16.1814 0.666601 16.0046 0.666601H14.0046C13.8278 0.666601 13.6582 0.736832 13.5332 0.861844C13.4081 0.986855 13.3379 1.15641 13.3379 1.3332V2.6664L10.9246 0.359131C10.6987 0.13082 10.3629 0 9.99999 0C9.63833 0 9.30333 0.13082 9.07749 0.359548L0.215015 8.83788C-0.0441508 9.08785 -0.0766507 9.49906 0.159182 9.76987C0.218403 9.83822 0.290916 9.89381 0.372306 9.93326C0.453696 9.9727 0.542263 9.99517 0.632614 9.9993C0.722966 10.0034 0.813214 9.98914 0.897865 9.95729C0.982516 9.92544 1.0598 9.87669 1.12501 9.81403L9.77083 1.55318C9.83286 1.49384 9.91539 1.46073 10.0012 1.46073C10.0871 1.46073 10.1696 1.49384 10.2317 1.55318L18.8783 9.81403C19.0057 9.93616 19.1763 10.0028 19.3527 9.99938C19.5292 9.99594 19.697 9.9227 19.8195 9.7957C20.0754 9.53072 20.0541 9.09327 19.7879 8.83871Z"
    fill="currentColor" />
</svg>