<svg width="12" height="12" viewBox="0 0 12 12" fill="none" xmlns="http://www.w3.org/2000/svg">
  <path
    d="M11 0H1C0.734784 0 0.48043 0.101149 0.292893 0.281196C0.105357 0.461243 0 0.705438 0 0.960063V4.48649C0 9.86345 4.73875 11.6474 5.6875 11.9504C5.89014 12.0165 6.10986 12.0165 6.3125 11.9504C7.2625 11.6474 12 9.86345 12 4.48649V0.960063C12 0.705438 11.8946 0.461243 11.7071 0.281196C11.5196 0.101149 11.2652 0 11 0ZM11 4.48769C11 5.54616 10.79 6.44562 10.455 7.20827L6.28687 4.40729C6.2028 4.35075 6.10265 4.32042 6 4.32042C5.89735 4.32042 5.7972 4.35075 5.71313 4.40729L1.545 7.20827C1.21 6.44562 1 5.54616 1 4.48769V0.960063H11V4.48769Z"
    fill="#9C9C9C" />
</svg>
