<svg width="17" height="16" viewBox="0 0 17 16" fill="none" xmlns="http://www.w3.org/2000/svg">
  <path
    d="M16.9147 15.68C16.8585 15.7773 16.7778 15.8581 16.6805 15.9143C16.5832 15.9705 16.4729 16 16.3606 16H1.00817C0.895936 15.9999 0.785709 15.9702 0.688556 15.914C0.591403 15.8578 0.510744 15.777 0.454678 15.6798C0.398612 15.5825 0.369112 15.4722 0.369141 15.3599C0.369169 15.2477 0.398726 15.1374 0.454842 15.0401C1.67264 12.934 3.54931 11.4238 5.73942 10.7079C4.65609 10.0628 3.81441 9.07972 3.34364 7.90974C2.87287 6.73975 2.79903 5.44752 3.13347 4.23149C3.46791 3.01546 4.19213 1.94287 5.19491 1.17844C6.1977 0.414005 7.4236 0 8.68437 0C9.94513 0 11.171 0.414005 12.1738 1.17844C13.1766 1.94287 13.9008 3.01546 14.2353 4.23149C14.5697 5.44752 14.4959 6.73975 14.0251 7.90974C13.5543 9.07972 12.7126 10.0628 11.6293 10.7079C13.8194 11.4238 15.6961 12.934 16.9139 15.0401C16.9702 15.1373 16.9998 15.2477 17 15.36C17.0001 15.4723 16.9707 15.5827 16.9147 15.68Z"
    fill="currentColor" />
</svg>