<svg width="20" height="10" viewBox="0 0 9 7" fill="none" xmlns="http://www.w3.org/2000/svg">
  <path fill-rule="evenodd" clip-rule="evenodd"
    d="M2.94633 0.777778C2.94633 0.571498 3.0498 0.373667 3.23398 0.227806C3.41816 0.0819442 3.66797 0 3.92844 0H4.91055C5.17102 0 5.42082 0.0819442 5.605 0.227806C5.78918 0.373667 5.89266 0.571498 5.89266 0.777778V2.33333H7.85687C8.11734 2.33333 8.36715 2.41528 8.55133 2.56114C8.73551 2.707 8.83898 2.90483 8.83898 3.11111V3.88889C8.83898 4.09517 8.73551 4.293 8.55133 4.43886C8.36715 4.58472 8.11734 4.66667 7.85687 4.66667H5.89266V6.22222C5.89266 6.4285 5.78918 6.62633 5.605 6.77219C5.42082 6.91806 5.17102 7 4.91055 7H3.92844C3.66797 7 3.41816 6.91806 3.23398 6.77219C3.0498 6.62633 2.94633 6.4285 2.94633 6.22222V4.66667H0.982109C0.721638 4.66667 0.471834 4.58472 0.287653 4.43886C0.103472 4.293 0 4.09517 0 3.88889V3.11111C0 2.90483 0.103472 2.707 0.287653 2.56114C0.471834 2.41528 0.721638 2.33333 0.982109 2.33333H2.94633V0.777778Z"
    fill="currentColor" fill-opacity="0.75" />
</svg>
