<svg width="13" height="13" viewBox="0 0 13 13" fill="none" xmlns="http://www.w3.org/2000/svg">
  <path fill-rule="evenodd" clip-rule="evenodd"
    d="M5.68086 1.21689C4.49706 1.21689 3.36174 1.68717 2.52466 2.52428C1.68759 3.36138 1.21733 4.49674 1.21733 5.68059C1.21733 6.86443 1.68759 7.99979 2.52466 8.8369C3.36174 9.674 4.49706 10.1443 5.68086 10.1443C6.86466 10.1443 7.99998 9.674 8.83705 8.8369C9.67413 7.99979 10.1444 6.86443 10.1444 5.68059C10.1444 4.49674 9.67413 3.36138 8.83705 2.52428C7.99998 1.68717 6.86466 1.21689 5.68086 1.21689ZM1.31142e-08 5.68059C7.66404e-05 4.77216 0.217993 3.877 0.635468 3.07019C1.05294 2.26338 1.65781 1.56845 2.39931 1.0437C3.14082 0.518946 3.99735 0.179671 4.89706 0.0543338C5.79677 -0.0710035 6.71341 0.0212516 7.5701 0.323361C8.42679 0.62547 9.19854 1.12862 9.82062 1.79061C10.4427 2.4526 10.897 3.25413 11.1453 4.12795C11.3936 5.00177 11.4288 5.9224 11.2479 6.81263C11.067 7.70285 10.6752 8.53671 10.1054 9.24424L12.8063 11.946C12.8661 12.0017 12.914 12.0689 12.9473 12.1436C12.9806 12.2182 12.9985 12.2988 12.9999 12.3806C13.0013 12.4623 12.9863 12.5435 12.9557 12.6193C12.9251 12.6951 12.8795 12.7639 12.8217 12.8217C12.7639 12.8795 12.6951 12.9251 12.6193 12.9557C12.5435 12.9863 12.4623 13.0013 12.3806 12.9999C12.2989 12.9985 12.2183 12.9806 12.1436 12.9473C12.069 12.914 12.0018 12.8661 11.946 12.8063L9.24438 10.1053C8.40973 10.7776 7.40195 11.2001 6.33741 11.324C5.27287 11.4478 4.19501 11.268 3.22831 10.8053C2.26161 10.3426 1.44551 9.61591 0.874263 8.70909C0.303017 7.80227 -7.27946e-05 6.75235 1.31142e-08 5.68059Z"
    fill="currentColor" />
</svg>
