<svg width="16" height="16" viewBox="0 0 16 16" fill="none" xmlns="http://www.w3.org/2000/svg">
  <path
    d="M15.9556 5.20727C16.0617 5.4792 15.9722 5.78238 15.7435 5.97617L14.3078 7.20766C14.3443 7.46708 14.3642 7.73276 14.3642 8.00156C14.3642 8.27037 14.3443 8.53604 14.3078 8.79547L15.7435 10.027C15.9722 10.2207 16.0617 10.5239 15.9556 10.7959C15.8098 11.1678 15.634 11.5241 15.4318 11.8679L15.276 12.1211C15.0571 12.4649 14.8118 12.79 14.5432 13.0963C14.3476 13.3214 14.0227 13.3964 13.7309 13.3088L11.8842 12.7556C11.4399 13.0776 10.9492 13.3464 10.4253 13.5495L10.0109 15.3342C9.94457 15.6187 9.71248 15.8437 9.40745 15.8906C8.9499 15.9625 8.4791 16 7.99834 16C7.51759 16 7.04678 15.9625 6.58924 15.8906C6.28421 15.8437 6.05212 15.6187 5.98581 15.3342L5.57136 13.5495C5.04751 13.3464 4.55681 13.0776 4.11253 12.7556L2.26908 13.312C1.97732 13.3995 1.65239 13.3214 1.45678 13.0994C1.18822 12.7931 0.942866 12.4681 0.72404 12.1242L0.56821 11.8711C0.365962 11.5273 0.190238 11.1709 0.0443539 10.799C-0.0617435 10.5271 0.0277762 10.2239 0.256549 10.0301L1.69218 8.79859C1.65571 8.53604 1.63581 8.27037 1.63581 8.00156C1.63581 7.73276 1.65571 7.46708 1.69218 7.20766L0.256549 5.97617C0.0277762 5.78238 -0.0617435 5.4792 0.0443539 5.20727C0.190238 4.83532 0.365962 4.479 0.56821 4.13518L0.72404 3.88201C0.942866 3.53819 1.18822 3.21313 1.45678 2.90682C1.65239 2.68177 1.97732 2.60676 2.26908 2.69428L4.11584 3.24751C4.56012 2.92557 5.05082 2.65677 5.57468 2.4536L5.98912 0.668881C6.05543 0.38445 6.28752 0.159406 6.59255 0.112522C7.0501 0.0375073 7.5209 0 8.00166 0C8.48241 0 8.95322 0.0375073 9.41076 0.109396C9.71579 0.156281 9.94788 0.381324 10.0142 0.665755L10.4286 2.45048C10.9525 2.65364 11.4432 2.92245 11.8875 3.24438L13.7342 2.69115C14.026 2.60363 14.3509 2.68177 14.5465 2.90369C14.8151 3.21 15.0605 3.53507 15.2793 3.87888L15.4351 4.13206C15.6374 4.47587 15.8131 4.83219 15.959 5.20414L15.9556 5.20727ZM8.00166 10.5021C8.70513 10.5021 9.37978 10.2386 9.87721 9.76968C10.3746 9.30074 10.6541 8.66473 10.6541 8.00156C10.6541 7.33839 10.3746 6.70238 9.87721 6.23345C9.37978 5.76452 8.70513 5.50107 8.00166 5.50107C7.29819 5.50107 6.62353 5.76452 6.1261 6.23345C5.62868 6.70238 5.34922 7.33839 5.34922 8.00156C5.34922 8.66473 5.62868 9.30074 6.1261 9.76968C6.62353 10.2386 7.29819 10.5021 8.00166 10.5021Z"
    fill="currentColor" />
</svg>
