<svg width="24" height="16" viewBox="0 0 24 16" fill="none" xmlns="http://www.w3.org/2000/svg">
  <path
    d="M20.6563 10.5C19.2053 10.5 18.0289 11.7313 18.0289 13.25C18.0289 14.7688 19.2053 16 20.6563 16C22.1074 16 23.2837 14.7688 23.2837 13.25C23.2837 11.7313 22.1074 10.5 20.6563 10.5ZM20.6563 14C20.2613 14 19.9397 13.6634 19.9397 13.25C19.9397 12.8366 20.2613 12.5 20.6563 12.5C21.0513 12.5 21.3729 12.8366 21.3729 13.25C21.3729 13.6634 21.0513 14 20.6563 14ZM23.0449 5H21.134V3.74375C21.134 3.3025 21.2744 2.87625 21.5266 2.53C21.6586 2.34875 21.6326 2.09063 21.4872 1.92094L20.8414 1.16563C20.6426 0.932813 20.2944 0.949376 20.104 1.19C19.5391 1.90313 19.2232 2.80656 19.2232 3.74375V5H16.1679L14.4932 0.910626C14.3832 0.64026 14.1996 0.409753 13.9653 0.247826C13.731 0.0858991 13.4564 -0.000289038 13.1756 7.28253e-07H9.1912C8.40088 7.28253e-07 7.75806 0.672813 7.75806 1.5V6.07875C7.5004 5.86844 7.13226 5.87688 6.89549 6.12469L5.96664 7.09688C5.71017 7.36531 5.71017 7.80063 5.96664 8.06906L6.11772 8.22719C5.96873 8.51656 5.8502 8.81531 5.76212 9.12469H5.54864C5.18588 9.12469 4.89178 9.4325 4.89178 9.81219V11.1872C4.89178 11.5669 5.18588 11.8747 5.54864 11.8747H5.76182C5.8502 12.1844 5.96843 12.4828 6.11742 12.7725L5.96634 12.9306C5.70987 13.1991 5.70987 13.6344 5.96634 13.9028L6.89519 14.875C7.15167 15.1434 7.56757 15.1434 7.82405 14.875L7.97512 14.7169C8.2516 14.8728 8.53703 14.9969 8.83262 15.0891V15.3125C8.83262 15.6922 9.12671 16 9.48947 16H10.8032C11.1659 16 11.46 15.6922 11.46 15.3125V15.0894C11.7556 14.9972 12.0411 14.8731 12.3175 14.7172L12.4686 14.8753C12.7251 15.1438 13.141 15.1438 13.3975 14.8753L14.3263 13.9031C14.5828 13.6347 14.5828 13.1994 14.3263 12.9309L14.1752 12.7728C14.3242 12.4834 14.4428 12.1847 14.5308 11.8753H14.7446C15.1074 11.8753 15.4015 11.5675 15.4015 11.1878V11.0003H17.8062C18.4603 10.0944 19.4877 9.50031 20.6563 9.50031C21.2128 9.50031 21.7333 9.64438 22.2029 9.88156L23.7202 8.29344C23.8994 8.10594 24 7.85156 24 7.58625V6C24.0003 5.44781 23.5725 5 23.0449 5ZM10.1466 13C8.82754 13 7.75806 11.8806 7.75806 10.5C7.75806 9.11938 8.82754 8 10.1466 8C11.4657 8 12.5352 9.11938 12.5352 10.5C12.5352 11.8806 11.4657 13 10.1466 13ZM10.8035 5H9.66891V2H12.8603L14.089 5H10.8035Z"
    fill="currentColor" />
  <path fill-rule="evenodd" clip-rule="evenodd"
    d="M1.93633 0.995563C1.93633 0.816394 2.00433 0.644564 2.12538 0.517873C2.24642 0.391182 2.41059 0.320007 2.58177 0.320007H3.22722C3.3984 0.320007 3.56257 0.391182 3.68361 0.517873C3.80466 0.644564 3.87266 0.816394 3.87266 0.995563V2.34667H5.16355C5.33473 2.34667 5.4989 2.41785 5.61994 2.54454C5.74099 2.67123 5.80899 2.84306 5.80899 3.02223V3.69778C5.80899 3.87695 5.74099 4.04878 5.61994 4.17547C5.4989 4.30217 5.33473 4.37334 5.16355 4.37334H3.87266V5.72445C3.87266 5.90362 3.80466 6.07545 3.68361 6.20214C3.56257 6.32883 3.3984 6.40001 3.22722 6.40001H2.58177C2.41059 6.40001 2.24642 6.32883 2.12538 6.20214C2.00433 6.07545 1.93633 5.90362 1.93633 5.72445V4.37334H0.645443C0.474261 4.37334 0.31009 4.30217 0.189046 4.17547C0.0680018 4.04878 0 3.87695 0 3.69778V3.02223C0 2.84306 0.0680018 2.67123 0.189046 2.54454C0.31009 2.41785 0.474261 2.34667 0.645443 2.34667H1.93633V0.995563Z"
    fill="currentColor" />
</svg>
