<svg width="18" height="9" viewBox="0 0 18 9" fill="none" xmlns="http://www.w3.org/2000/svg">
  <path
    d="M17.5289 8.60085C17.6783 8.4744 17.7967 8.3242 17.8776 8.15884C17.9584 7.99349 18 7.81623 18 7.63722C18 7.4582 17.9584 7.28095 17.8776 7.11559C17.7967 6.95024 17.6783 6.80004 17.5289 6.67359L10.1353 0.399728C9.98626 0.273016 9.80925 0.172488 9.61438 0.103897C9.41952 0.0353061 9.21062 0 8.99966 0C8.78869 0 8.5798 0.0353061 8.38493 0.103897C8.19007 0.172488 8.01306 0.273016 7.86403 0.399728L0.47039 6.67359C0.321259 6.80013 0.202959 6.95036 0.12225 7.1157C0.0415401 7.28104 0 7.45826 0 7.63722C0 7.81618 0.0415401 7.99339 0.12225 8.15873C0.202959 8.32407 0.321259 8.4743 0.47039 8.60085C0.619524 8.7274 0.796568 8.82778 0.991419 8.89626C1.18627 8.96475 1.39511 9 1.60602 9C1.81692 9 2.02576 8.96475 2.22061 8.89626C2.41546 8.82778 2.59251 8.7274 2.74164 8.60085L9.00771 3.29746L15.2577 8.60085C15.8859 9.13392 16.9168 9.12025 17.5289 8.60085Z"
    fill="#9C9C9C" />
</svg>