<svg width="24" height="16" viewBox="0 0 24 16" fill="none" xmlns="http://www.w3.org/2000/svg">
  <path fill-rule="evenodd" clip-rule="evenodd"
    d="M2.59285 5.3696C2.59285 5.14029 2.68391 4.92038 2.84599 4.75824C3.00808 4.5961 3.22791 4.505 3.45713 4.505H4.32141C4.55064 4.505 4.77047 4.5961 4.93256 4.75824C5.09464 4.92038 5.1857 5.14029 5.1857 5.3696V7.09879H6.91426C7.14349 7.09879 7.36332 7.18988 7.5254 7.35202C7.68749 7.51416 7.77855 7.73407 7.77855 7.96338V8.82797C7.77855 9.05728 7.68749 9.27719 7.5254 9.43933C7.36332 9.60147 7.14349 9.69257 6.91426 9.69257H5.1857V11.4218C5.1857 11.6511 5.09464 11.871 4.93256 12.0331C4.77047 12.1953 4.55064 12.2863 4.32141 12.2863H3.45713C3.22791 12.2863 3.00808 12.1953 2.84599 12.0331C2.68391 11.871 2.59285 11.6511 2.59285 11.4218V9.69257H0.864283C0.635061 9.69257 0.415227 9.60147 0.253143 9.43933C0.0910581 9.27719 0 9.05728 0 8.82797V7.96338C0 7.73407 0.0910581 7.51416 0.253143 7.35202C0.415227 7.18988 0.635061 7.09879 0.864283 7.09879H2.59285V5.3696Z"
    fill="currentColor" />
  <path
    d="M23.9147 15.68C23.8585 15.7773 23.7778 15.8581 23.6805 15.9143C23.5832 15.9705 23.4729 16 23.3606 16H8.00818C7.89595 15.9999 7.78572 15.9702 7.68857 15.914C7.59142 15.8578 7.51076 15.777 7.45469 15.6798C7.39863 15.5825 7.36913 15.4722 7.36916 15.3599C7.36918 15.2477 7.39874 15.1374 7.45486 15.0401C8.67265 12.934 10.5493 11.4238 12.7394 10.7079C11.6561 10.0628 10.8144 9.07972 10.3437 7.90974C9.87288 6.73975 9.79904 5.44752 10.1335 4.23149C10.4679 3.01546 11.1921 1.94287 12.1949 1.17844C13.1977 0.414005 14.4236 0 15.6844 0C16.9451 0 18.171 0.414005 19.1738 1.17844C20.1766 1.94287 20.9008 3.01546 21.2353 4.23149C21.5697 5.44752 21.4959 6.73975 21.0251 7.90974C20.5543 9.07972 19.7127 10.0628 18.6293 10.7079C20.8194 11.4238 22.6961 12.934 23.9139 15.0401C23.9702 15.1373 23.9999 15.2477 24 15.36C24.0001 15.4723 23.9707 15.5827 23.9147 15.68Z"
    fill="currentColor" />
</svg>
