<svg width="97" height="89" viewBox="0 0 97 89" fill="none" xmlns="http://www.w3.org/2000/svg">
  <path fill-rule="evenodd" clip-rule="evenodd"
    d="M44.3477 0.126851C39.3167 0.47243 32.3724 2.30154 27.6141 4.53431C23.6244 6.40656 20.0508 8.53161 20.3231 8.86997C20.447 9.02371 22.9145 12.1045 25.8066 15.7165C28.6982 19.3285 31.1652 22.2834 31.2885 22.2834C31.4118 22.2834 32.1496 21.9044 32.9285 21.441C34.6237 20.4324 38.3093 18.8968 40.647 18.2252C44.8319 17.0229 51.972 16.9349 56.2692 18.0324C57.5538 18.3604 59.5547 19.0173 60.7157 19.4923C61.8768 19.9671 62.9337 20.3555 63.0646 20.3555C63.2683 20.3555 66.0117 15.7883 70.7666 7.53392L71.9745 5.43635L70.2088 4.61192C62.8099 1.15781 53.3142 -0.488877 44.3477 0.126851ZM80.7336 22.6013C77.0999 25.1438 73.8191 27.4496 73.4427 27.7257L72.758 28.2277L74.0569 30.2322C75.6157 32.6383 76.6603 34.9944 77.4412 37.866C77.9342 39.6793 78.0174 40.6056 77.9997 44.0931C77.9815 47.6973 77.8986 48.4712 77.3092 50.5289C76.9412 51.8154 76.1654 53.8094 75.5856 54.9602C75.0058 56.1112 74.5313 57.1365 74.5313 57.2388C74.5313 57.3412 77.4753 58.9142 81.0732 60.7343C84.6714 62.5546 88.292 64.4078 89.1189 64.8526C89.9461 65.2976 90.7307 65.6616 90.8633 65.6616C91.5364 65.6616 94.0741 59.6665 95.454 54.8171C96.3694 51.6004 96.3809 51.4979 96.4934 45.7093C96.5859 40.9496 96.5248 39.395 96.1665 37.3951C95.0831 31.3518 91.7737 23.7012 88.3073 19.2275L87.3398 17.9789L80.7336 22.6013ZM6.45414 23.7897C5.4284 24.9805 3.43032 29.7229 2.36755 33.4896C0.228257 41.0697 0.496153 50.4417 3.06579 57.921C4.47367 62.0188 7.43972 67.6273 9.67589 70.4202L10.3024 71.2025L11.7797 70.1937C19.1774 65.1423 25.3047 60.7921 25.3047 60.5912C25.3047 60.4568 24.5981 59.2202 23.7345 57.8431C20.6247 52.8843 19.4588 48.5486 19.6806 42.7676C19.8319 38.8243 20.3008 36.7988 21.8276 33.4927C22.3531 32.3553 22.7342 31.3799 22.6749 31.3247C22.1829 30.867 7.41769 23.4884 6.99382 23.4884C6.83967 23.4884 6.59689 23.6242 6.45414 23.7897ZM64.1918 66.8873C62.0169 68.114 57.7261 69.6621 54.7537 70.2922C53.0835 70.6462 51.4187 70.8024 49.1408 70.8187C45.4442 70.8449 43.3716 70.5005 38.5149 69.0538L35.3675 68.1164L34.255 69.7206C33.6431 70.6028 31.5313 74.0779 29.5622 77.4423L25.9818 83.5597L26.5472 83.9856C28.1299 85.1777 35.9538 87.7663 40.0727 88.4607C43.0979 88.9707 51.4576 89.1774 54.7133 88.8229C61.3376 88.1016 68.2261 85.7842 74.5325 82.1557C77.6125 80.3837 77.6061 80.3935 76.576 78.9882C75.2185 77.1357 66.5899 66.5131 66.2034 66.2185C65.9341 66.0133 65.4644 66.1691 64.1918 66.8873Z"
    fill="#86BD2C" />
</svg>
