<svg width="611" height="89" viewBox="0 0 611 89" fill="none" xmlns="http://www.w3.org/2000/svg">
  <path fill-rule="evenodd" clip-rule="evenodd"
    d="M44.3477 0.126851C39.3167 0.47243 32.3724 2.30154 27.6141 4.53431C23.6244 6.40656 20.0508 8.53161 20.3231 8.86997C20.447 9.02371 22.9145 12.1045 25.8066 15.7165C28.6982 19.3285 31.1652 22.2834 31.2885 22.2834C31.4118 22.2834 32.1496 21.9044 32.9285 21.441C34.6237 20.4324 38.3093 18.8968 40.647 18.2252C44.8319 17.0229 51.972 16.9349 56.2692 18.0324C57.5538 18.3604 59.5547 19.0173 60.7157 19.4923C61.8768 19.9671 62.9337 20.3555 63.0646 20.3555C63.2683 20.3555 66.0117 15.7883 70.7666 7.53392L71.9745 5.43635L70.2088 4.61192C62.8099 1.15781 53.3142 -0.488877 44.3477 0.126851ZM80.7336 22.6013C77.0999 25.1438 73.8191 27.4496 73.4427 27.7257L72.758 28.2277L74.0569 30.2322C75.6157 32.6383 76.6603 34.9944 77.4412 37.866C77.9342 39.6793 78.0174 40.6056 77.9997 44.0931C77.9815 47.6973 77.8986 48.4712 77.3092 50.5289C76.9412 51.8154 76.1654 53.8094 75.5856 54.9602C75.0058 56.1112 74.5313 57.1365 74.5313 57.2388C74.5313 57.3412 77.4753 58.9142 81.0732 60.7343C84.6714 62.5546 88.292 64.4078 89.1189 64.8526C89.9461 65.2976 90.7307 65.6616 90.8633 65.6616C91.5364 65.6616 94.0741 59.6665 95.454 54.8171C96.3694 51.6004 96.3809 51.4979 96.4934 45.7093C96.5859 40.9496 96.5248 39.395 96.1665 37.3951C95.0831 31.3518 91.7737 23.7012 88.3073 19.2275L87.3398 17.9789L80.7336 22.6013ZM6.45414 23.7897C5.4284 24.9805 3.43032 29.7229 2.36755 33.4896C0.228257 41.0697 0.496153 50.4417 3.06579 57.921C4.47367 62.0188 7.43972 67.6273 9.67589 70.4202L10.3024 71.2025L11.7797 70.1937C19.1774 65.1423 25.3047 60.7921 25.3047 60.5912C25.3047 60.4568 24.5981 59.2202 23.7345 57.8431C20.6247 52.8843 19.4588 48.5486 19.6806 42.7676C19.8319 38.8243 20.3008 36.7988 21.8276 33.4927C22.3531 32.3553 22.7342 31.3799 22.6749 31.3247C22.1829 30.867 7.41769 23.4884 6.99382 23.4884C6.83967 23.4884 6.59689 23.6242 6.45414 23.7897ZM64.1918 66.8873C62.0169 68.114 57.7261 69.6621 54.7537 70.2922C53.0835 70.6462 51.4187 70.8024 49.1408 70.8187C45.4442 70.8449 43.3716 70.5005 38.5149 69.0538L35.3675 68.1164L34.255 69.7206C33.6431 70.6028 31.5313 74.0779 29.5622 77.4423L25.9818 83.5597L26.5472 83.9856C28.1299 85.1777 35.9538 87.7663 40.0727 88.4607C43.0979 88.9707 51.4576 89.1774 54.7133 88.8229C61.3376 88.1016 68.2261 85.7842 74.5325 82.1557C77.6125 80.3837 77.6061 80.3935 76.576 78.9882C75.2185 77.1357 66.5899 66.5131 66.2034 66.2185C65.9341 66.0133 65.4644 66.1691 64.1918 66.8873Z"
    fill="#86BD2C" />
  <path fill-rule="evenodd" clip-rule="evenodd"
    d="M379.428 6.81264C377.148 7.05909 375.798 7.83832 375.425 9.12491C375.042 10.435 374.954 14.9292 374.952 32.8032C374.952 54.697 375.042 56.7978 376.061 58.3475C377.409 60.4003 386.261 59.921 387.088 57.7503C387.32 57.1445 387.559 38.9304 387.566 21.2313L387.571 8.56378L386.66 7.99098C384.832 6.84171 382.571 6.47328 379.428 6.81264ZM531.231 6.8718C529.567 7.20664 528.38 7.92232 527.871 8.89672C527.452 9.69523 527.275 11.3968 527.075 16.5397C526.922 20.4658 526.742 22.0383 526.429 22.2181C526.35 22.2631 525.626 22.1043 524.818 21.8652C520.751 20.6585 516.575 21.0852 512.971 23.0759C508.999 25.2703 506.351 29.9018 505.371 36.3705C504.303 43.4171 505.67 50.5694 508.937 55.0254C510.947 57.7699 514.444 59.6703 518.33 60.1304C520.887 60.4332 523.91 59.8198 526.714 58.4294C527.428 58.0745 528.148 57.7842 528.308 57.7842C528.47 57.7842 528.936 58.0189 529.34 58.3059C530.851 59.373 531.236 59.4609 534.41 59.4625C536.984 59.464 537.309 59.4358 537.88 59.1592C538.642 58.7905 539.469 57.8333 539.694 57.0544C540.088 55.6984 540.174 51.851 540.27 31.3425L540.368 9.64848L539.254 8.65889C538.642 8.11457 537.813 7.53548 537.414 7.37215C535.741 6.68715 533.179 6.47971 531.231 6.8718ZM600.844 6.92936C600.008 7.13052 599.365 7.51912 598.229 8.50915L597.121 9.47771L597.18 31.7683C597.223 48.1176 597.29 54.3703 597.429 55.2276C597.833 57.7158 598.394 58.8542 599.451 59.3221C599.943 59.541 600.56 59.6029 602.766 59.6552C607.331 59.7635 608.215 59.5546 608.944 58.1964C609.914 56.3848 610.043 53.5097 610.23 29.224L610.38 9.64848L609.321 8.651C608.738 8.10244 607.907 7.47996 607.472 7.26785C606.719 6.89971 606.561 6.88057 604.001 6.84887C602.524 6.83061 601.105 6.86684 600.844 6.92936ZM548.761 8.1638C547.031 8.57153 545.492 9.55105 544.859 10.6502C544.529 11.2199 544.507 11.4354 544.507 14.3233C544.507 17.2111 544.529 17.4266 544.859 17.9963C546.536 20.9001 552.241 21.7316 555.743 19.5824C557.306 18.6226 557.853 17.091 557.858 13.6586C557.86 11.5384 557.736 10.8328 557.215 10.0472C556.806 9.4349 555.673 8.77137 554.371 8.3822C553.092 8.00003 549.973 7.87878 548.761 8.1638ZM182.346 20.5213C178.777 21.2152 175.248 22.8949 171.508 25.6801C166.673 29.2803 162.808 34.9977 151.276 55.6103C149.045 59.5973 147.134 62.9577 147.03 63.0779C146.866 63.2659 145.993 62.9295 140.771 60.6655L134.703 58.0345L133.434 58.6619C130.674 60.0252 129.497 61.0295 128.616 62.7733C127.898 64.193 127.626 65.5841 127.605 67.9424C127.583 70.533 127.607 70.5735 129.692 71.4706C133.622 73.1609 148.661 78.9891 151.095 79.7649C152.632 80.2547 153.448 80.2111 153.965 79.6114C154.152 79.3934 155.051 77.8937 155.962 76.2788C157.493 73.5636 158.709 71.2572 163.252 62.4589C165.805 57.516 169.945 49.8885 171.818 46.6816C178 36.0906 181.629 31.8818 184.589 31.868C185.251 31.8649 185.541 31.9488 186.073 32.2972C187.164 33.0112 187.397 33.409 187.384 34.5307C187.369 35.8379 186.336 38.6336 183.921 43.9059C181.029 50.2216 178.637 55.7776 178.639 56.177C178.642 56.9442 180.269 59.0355 181.217 59.4918C182.272 59.9991 188.09 59.9874 189.927 59.474C190.364 59.3519 190.907 59.0695 191.134 58.8468C192.06 57.9346 195.013 52.6337 198.521 45.5858C202.051 38.4954 204.58 33.9074 205.417 33.0793C207.015 31.4975 208.959 31.0216 209.562 32.0645C209.956 32.7451 210.07 35.0331 210.198 44.7824C210.346 56.0137 210.409 56.8018 211.269 58.2839C211.575 58.811 211.9 59.1269 212.408 59.3893C213.103 59.7488 213.186 59.7564 216.432 59.7564C220.219 59.7564 220.642 59.6576 221.436 58.5876C222.546 57.092 222.664 55.4074 222.665 41.0782L222.665 29.1199L221.679 27.4461C221.136 26.5255 220.337 25.3349 219.903 24.8003C217.421 21.7422 213.067 20.0334 208.395 20.2839C204.874 20.473 202.829 21.1382 197.471 23.8395L196.657 24.2496L194.867 23.1377C192.4 21.6056 191.612 21.2547 189.289 20.6535C187.631 20.2243 184.209 20.1592 182.346 20.5213ZM427.969 20.9675C426.107 21.2677 424.441 21.8146 422.321 22.8214C421.081 23.4102 419.96 23.892 419.831 23.892C419.702 23.892 419.451 23.6642 419.272 23.3858C418.727 22.5301 416.712 21.8083 414.346 21.6213C413.096 21.5226 411.253 21.8139 410.295 22.2613C409.542 22.6136 409.059 23.5587 408.739 25.3162C408.507 26.5901 408.481 28.8572 408.481 46.7546C408.481 67.7522 408.531 69.5584 409.164 70.5601C409.824 71.6045 412.276 72.1723 415.658 72.0631C418.129 71.9834 419.006 71.7543 419.917 70.9504C420.261 70.6476 420.596 70.1705 420.701 69.8363C420.816 69.4687 420.918 67.2064 420.978 63.7371C421.031 60.7042 421.095 58.2225 421.119 58.2225C421.143 58.2225 421.843 58.5462 422.675 58.9418C424.52 59.8194 425.875 60.1215 427.966 60.1215C433.53 60.1215 438.059 57.4831 440.631 52.7441C442.772 48.7969 443.886 42.9018 443.444 37.8432C442.882 31.4019 440.602 26.305 437.139 23.7443C435.806 22.7569 434.374 22.1077 432.204 21.5032C430.206 20.9473 429.023 20.7974 427.969 20.9675ZM462.686 21.0978C461.517 21.3987 460.499 21.8625 459.137 22.7148C458.616 23.0403 458.044 23.3069 457.87 23.3072C457.693 23.3075 457.289 23.1085 456.971 22.8651C456.063 22.1724 455.372 21.9814 453.205 21.824C450.81 21.6501 448.812 21.8177 448.195 22.244C447.617 22.6445 447.235 23.4189 446.936 24.7979C446.704 25.8774 446.675 27.603 446.673 40.546C446.671 51.6654 446.716 55.3391 446.871 56.1773C447.103 57.4486 447.751 58.7454 448.351 59.1474C449.366 59.8276 455.831 59.8076 457.282 59.1194C458.126 58.7187 458.659 57.9766 458.977 56.7615C459.297 55.5416 459.514 50.2861 459.526 43.6138C459.533 38.3935 459.643 37.0923 460.172 36.0762C460.564 35.3192 462.096 33.7437 462.736 33.4362C463.147 33.2402 463.494 33.2219 464.889 33.3232C467.932 33.5439 468.694 33.3861 469.423 32.3847C469.959 31.6493 470.15 30.4582 470.143 27.9094C470.135 25.4465 469.932 23.8435 469.538 23.1402C469.239 22.6041 468.164 21.9752 466.558 21.3958C464.992 20.8306 464.015 20.7555 462.686 21.0978ZM484.681 21.116C478.391 22.3785 474.261 25.1184 471.799 29.6624C469.335 34.21 468.603 41.7831 470.042 47.8188C470.9 51.4109 472.26 53.7921 474.703 55.9737C477.176 58.1851 480.15 59.4351 484.423 60.0588C488.209 60.6115 494.595 59.8365 498.431 58.3584C500.496 57.5623 501.593 56.1072 502.013 53.6025C502.343 51.6389 501.674 49.2526 500.551 48.3764C500.041 47.9806 499.965 47.9659 498.751 48.0335C497.986 48.0763 496.949 48.2643 496.141 48.507C493.686 49.2437 492.15 49.4742 489.114 49.5601C486.397 49.6369 486.234 49.6257 485.429 49.3042C484.784 49.0472 484.349 48.7139 483.591 47.8916C481.911 46.0673 481.775 45.4151 483.006 45.0663C483.376 44.9612 486.175 44.8513 490.539 44.7703C500.266 44.5901 500.928 44.5025 502.133 43.2313C503.423 41.8709 503.832 39.2766 503.32 35.6757C502.286 28.3633 498.653 23.7164 492.589 21.9519C489.136 20.9467 486.77 20.6966 484.681 21.116ZM575.467 20.9838C573.993 21.1837 569.695 22.1408 568.496 22.5369C565.601 23.4918 563.443 24.9473 562.626 26.4938C562.255 27.1931 562.179 27.5481 562.131 28.784C562.043 30.9822 562.676 32.8808 563.835 33.899C564.308 34.314 564.402 34.3369 565.625 34.3311C566.866 34.3253 567.004 34.2888 569.127 33.403C571.784 32.2932 573.782 31.7857 575.912 31.6791C577.795 31.5845 578.706 31.7726 579.322 32.3829C579.846 32.9006 580.159 33.7099 580.027 34.1971C579.839 34.8949 578.806 35.2153 574.65 35.8677C570.018 36.5944 567.657 37.3019 565.544 38.5955C563.376 39.9232 561.538 42.2681 561.075 44.2995C560.805 45.4712 560.752 50.724 560.996 51.9573C561.199 52.9786 562.222 54.8403 563.221 55.9966C564.268 57.2119 565.506 58.1014 567.231 58.8766C569.275 59.7947 570.663 60.0501 573.543 60.0374C576.297 60.0254 577.604 59.8031 579.444 59.0335C580.128 58.7474 580.94 58.5146 581.253 58.5146C581.566 58.5146 582.553 58.7574 583.445 59.0542C585.001 59.5731 585.147 59.5942 587.195 59.602C589.212 59.6098 589.377 59.5882 590.295 59.195C591.432 58.7093 591.965 58.2276 592.264 57.419C592.548 56.6525 592.546 36.6373 592.259 32.9494C592.035 30.0284 591.808 29.0663 590.99 27.5601C589.049 23.9868 585.778 22.1264 579.803 21.1997C577.241 20.8027 576.923 20.7867 575.467 20.9838ZM241.759 21.1381C238.448 21.3404 233.974 22.5748 231.492 23.9707C229.251 25.2307 228.504 26.5046 228.504 29.0627C228.504 31.9615 229.872 34.5563 231.4 34.5563C232.162 34.5563 233.417 34.1776 235.325 33.3714C238.353 32.0927 240.393 31.5986 242.627 31.603C244.69 31.607 245.865 32.2496 246.092 33.4987C246.237 34.2921 245.973 34.8208 245.3 35.0807C244.99 35.2006 243.836 35.4313 242.735 35.5933C237.665 36.3398 235.541 36.8413 233.532 37.7665C230.37 39.2221 228.306 41.4515 227.237 44.5632C226.968 45.3471 226.869 46.0635 226.813 47.631C226.728 49.9604 226.904 50.9943 227.714 52.9377C229.735 57.7899 234.485 60.3656 240.877 60.0755C243.046 59.9769 244.022 59.7653 245.787 59.0103C247.341 58.3457 248.139 58.3106 249.292 58.8564C250.521 59.4382 251.749 59.6834 253.437 59.6834C255.873 59.6834 257.894 59.0564 258.088 58.2401C258.345 57.1551 258.49 54.9248 258.665 49.3396C258.859 43.1735 258.684 33.6311 258.326 30.8247C257.815 26.8181 254.811 23.6319 250.062 22.0608C247.544 21.2278 244.971 20.9419 241.759 21.1381ZM352.215 21.1213C351.473 21.1832 350.041 21.4333 349.035 21.677C344.517 22.7708 341.149 24.6354 340.206 26.5651C339.874 27.2453 339.836 27.5319 339.841 29.2972C339.847 30.9858 339.898 31.3872 340.199 32.0892C340.641 33.1182 341.492 34.1391 342.201 34.4931C342.898 34.8402 343.422 34.7213 346.005 33.6293C348.309 32.6559 350.044 32.1406 352.04 31.8377C353.779 31.5736 355.675 31.6397 356.243 31.9839C356.729 32.2787 357.47 33.6976 357.492 34.3751C357.516 35.1141 357.191 35.2322 354.166 35.5835C351.048 35.9458 349.553 36.2194 347.646 36.7773C342.555 38.2664 339.533 40.9376 338.424 44.9285C338.028 46.3512 337.929 49.1287 338.222 50.5578C339.223 55.4299 342.932 58.9403 348.103 59.9084C349.121 60.0993 349.96 60.1411 351.733 60.0899C353.804 60.0301 354.189 59.9758 355.537 59.5539C356.361 59.2956 357.449 58.8577 357.954 58.5807C359.231 57.8801 359.532 57.8295 359.84 58.2645C360.761 59.5655 365.933 60.1567 368.025 59.2006C369.947 58.3237 370.272 56.9771 370.447 49.2381C370.544 44.8351 370.329 36.3213 370.055 33.8258C369.686 30.4442 368.981 28.0017 367.901 26.3449C365.697 22.9661 358.565 20.5911 352.215 21.1213ZM281.447 21.3349C280.144 21.604 278.538 22.1844 276.971 22.9525C276.246 23.3085 275.492 23.5998 275.298 23.5998C275.103 23.5998 274.612 23.3652 274.206 23.0783C273.234 22.3915 271.978 21.8695 270.813 21.669C269.045 21.3647 265.825 22.0308 264.696 22.9344L264.117 23.3972L263.995 26.0186C263.836 29.4189 263.836 51.8156 263.995 55.2143L264.117 57.8309L264.68 58.3081C266.414 59.7795 271.9 60.1453 274.415 58.9576C275.837 58.2859 276.13 57.2962 276.321 52.5251C276.4 50.5565 276.47 45.8891 276.478 42.1529L276.492 35.3597L277.749 34.4103C279.596 33.0148 280.626 32.515 281.66 32.5128C283.825 32.5084 284.25 34.2118 284.446 43.6868C284.624 52.2897 284.848 57.0657 285.101 57.6518C285.588 58.7787 287.476 59.5136 290.217 59.6434C293.165 59.7829 295.608 59.118 296.444 57.949C297.146 56.9674 297.204 55.8299 297.094 45.1477C296.96 31.9563 296.868 31.029 295.422 28.1912C293.601 24.6177 291.936 23.0948 288.563 21.9195C286.288 21.1268 283.547 20.9016 281.447 21.3349ZM327.54 21.7138C325.889 21.8768 324.112 22.377 323.499 22.8515C323.083 23.1731 322.979 23.3871 322.85 24.1841C322.766 24.7064 322.658 29.6831 322.609 35.2438L322.521 45.3535L320.961 46.7548C319.342 48.2095 318.449 48.7182 317.503 48.7235C316.792 48.7277 315.975 48.3197 315.417 47.6822C314.552 46.6932 314.495 46.0593 314.341 35.798C314.194 26.0136 314.095 24.4228 313.571 23.4721C312.928 22.3047 310.343 21.6177 307.031 21.7335C304.418 21.825 302.747 22.3819 302.245 23.3278C301.929 23.9235 301.725 29.3382 301.728 37.1128C301.73 44.5943 301.868 47.8342 302.278 50.0701C303.301 55.6433 307.546 59.5239 313.278 60.1249C316.029 60.4137 318.924 59.8189 321.832 58.3675C322.636 57.9664 323.4 57.6382 323.53 57.6382C323.66 57.6382 324.207 57.9659 324.747 58.3664C326.522 59.6854 329.304 60.1086 332.024 59.4738C334.025 59.0068 334.546 58.2258 334.86 55.225C335.302 51.0046 335.179 27.2271 334.703 24.8415C334.473 23.6845 333.93 22.716 333.33 22.3918C332.314 21.8424 329.535 21.5169 327.54 21.7138ZM549.505 21.7118C547.301 21.9763 546.147 22.5478 545.611 23.6401C544.866 25.1591 544.823 26.0481 544.823 40.6189C544.823 54.9528 544.863 55.872 545.552 57.573C546.183 59.1367 547.409 59.6102 550.819 59.6102C552.691 59.6102 553.212 59.5579 554.213 59.2698C555.85 58.799 556.663 58.3364 556.887 57.7503C557.191 56.9567 557.408 40.2035 557.224 31.9997C557.028 23.3139 556.952 22.8981 555.418 22.2337C555.009 22.0573 551.049 21.5108 550.63 21.5731C550.561 21.5834 550.054 21.6457 549.505 21.7118ZM488.856 31.6224C489.566 31.9579 490.314 32.7912 490.802 33.7875C491.351 34.9145 490.861 35.1913 488.015 35.3633C486.505 35.4543 483.111 35.2674 482.53 35.0613C482.379 35.0075 482.255 34.8493 482.255 34.7098C482.255 34.3384 483.735 32.4501 484.334 32.0536C485.675 31.1702 487.525 30.9938 488.856 31.6224ZM427.73 32.867C429.506 33.8311 430.101 35.8149 430.096 40.7651C430.094 45.7473 429.451 47.5932 427.395 48.5233C426.702 48.8376 426.406 48.8944 425.835 48.8218C424.42 48.6425 423.074 47.7352 421.989 46.2324C421.114 45.0193 420.983 44.1429 421.05 40.0347C421.117 36.0588 421.174 35.8726 422.859 34.2559C424.642 32.5464 426.279 32.0798 427.73 32.867ZM523.738 32.8955C524.72 33.3479 525.994 34.4802 526.446 35.2983C526.907 36.1349 527.125 38.6202 527.02 41.8607C526.922 44.8654 526.754 45.6145 525.975 46.5234C525.244 47.3785 523.688 48.4027 522.725 48.6619C521.676 48.9442 520.851 48.7762 520.036 48.113C518.736 47.0563 518.217 45.1092 518.213 41.2764C518.208 37.3693 518.8 34.5823 519.854 33.5557C520.956 32.4826 522.335 32.2483 523.738 32.8955ZM245.611 44.8705C245.965 44.9964 246.224 46.0319 246.097 46.8138C245.75 48.9587 243.848 50.1342 241.218 49.83C240.04 49.6938 239.447 49.2368 239.304 48.3564C239.083 46.9869 239.7 45.9307 241.012 45.4378C242.254 44.9715 244.956 44.638 245.611 44.8705ZM357.232 44.8743C357.467 44.9325 357.645 45.1428 357.76 45.499C358.401 47.4808 355.243 50.1882 352.499 50.0091C351.327 49.9326 350.739 49.4582 350.492 48.3913C350.196 47.1139 350.773 46.1247 352.169 45.5171C353.352 45.0024 356.26 44.6331 357.232 44.8743ZM579.678 45.0033C580.063 45.36 580.156 46.4086 579.879 47.2882C579.277 49.2054 576.359 50.4697 574.342 49.6887C573.605 49.4041 573.342 48.9671 573.216 47.8184C573.013 45.9701 573.467 45.619 577.016 44.8818C577.821 44.7145 579.447 44.7888 579.678 45.0033Z"
    fill="#F2F2F2" />
</svg>
