<svg width="484" height="75" viewBox="0 0 484 75" fill="none" xmlns="http://www.w3.org/2000/svg">
  <path fill-rule="evenodd" clip-rule="evenodd"
    d="M252.428 0.812639C250.148 1.05909 248.798 1.83832 248.425 3.12491C248.042 4.43502 247.954 8.92923 247.952 26.8032C247.952 48.697 248.042 50.7978 249.061 52.3475C250.409 54.4003 259.261 53.921 260.088 51.7503C260.32 51.1445 260.559 32.9304 260.566 15.2313L260.571 2.56378L259.66 1.99098C257.832 0.84171 255.571 0.473278 252.428 0.812639ZM404.231 0.871804C402.567 1.20664 401.38 1.92232 400.871 2.89672C400.452 3.69523 400.275 5.39684 400.075 10.5397C399.922 14.4658 399.742 16.0383 399.429 16.2181C399.35 16.2631 398.626 16.1043 397.818 15.8652C393.751 14.6585 389.575 15.0852 385.971 17.0759C381.999 19.2703 379.351 23.9018 378.371 30.3705C377.303 37.4171 378.67 44.5694 381.937 49.0254C383.947 51.7699 387.444 53.6703 391.33 54.1304C393.887 54.4332 396.91 53.8198 399.714 52.4294C400.428 52.0745 401.148 51.7842 401.308 51.7842C401.47 51.7842 401.936 52.0189 402.34 52.3059C403.851 53.373 404.236 53.4609 407.41 53.4625C409.984 53.464 410.309 53.4358 410.88 53.1592C411.642 52.7905 412.469 51.8333 412.694 51.0544C413.088 49.6984 413.174 45.851 413.27 25.3425L413.368 3.64848L412.254 2.65889C411.642 2.11457 410.813 1.53548 410.414 1.37215C408.741 0.68715 406.179 0.479706 404.231 0.871804ZM473.844 0.929363C473.008 1.13052 472.365 1.51912 471.229 2.50915L470.121 3.47771L470.18 25.7683C470.223 42.1176 470.29 48.3703 470.429 49.2276C470.833 51.7158 471.394 52.8542 472.451 53.3221C472.943 53.541 473.56 53.6029 475.766 53.6552C480.331 53.7635 481.215 53.5546 481.944 52.1964C482.914 50.3848 483.043 47.5097 483.23 23.224L483.38 3.64848L482.321 2.651C481.738 2.10244 480.907 1.47996 480.472 1.26785C479.719 0.899706 479.561 0.880569 477.001 0.848868C475.524 0.830607 474.105 0.866837 473.844 0.929363ZM421.761 2.1638C420.031 2.57153 418.492 3.55105 417.859 4.6502C417.529 5.21993 417.507 5.43542 417.507 8.32327C417.507 11.2111 417.529 11.4266 417.859 11.9963C419.536 14.9001 425.241 15.7316 428.743 13.5824C430.306 12.6226 430.853 11.091 430.858 7.65858C430.86 5.53842 430.736 4.8328 430.215 4.04716C429.806 3.4349 428.673 2.77137 427.371 2.3822C426.092 2.00003 422.973 1.87878 421.761 2.1638ZM55.3458 14.5213C51.777 15.2152 48.2484 16.8949 44.5081 19.6801C39.6732 23.2803 35.8083 28.9977 24.2756 49.6103C22.0449 53.5973 20.1344 56.9577 20.0297 57.0779C19.8661 57.2659 18.9934 56.9295 13.7715 54.6655L7.70326 52.0345L6.43355 52.6619C3.67402 54.0252 2.49712 55.0295 1.61578 56.7733C0.897922 58.193 0.626024 59.5841 0.605352 61.9424C0.582628 64.533 0.606614 64.5735 2.69217 65.4706C6.62229 67.1609 21.6613 72.9891 24.0949 73.7649C25.6317 74.2547 26.4484 74.2111 26.9649 73.6114C27.1525 73.3934 28.0511 71.8937 28.9617 70.2788C30.4927 67.5636 31.7095 65.2572 36.2524 56.4589C38.8046 51.516 42.9453 43.8885 44.8176 40.6816C51.0003 30.0906 54.629 25.8818 57.5888 25.868C58.251 25.8649 58.541 25.9488 59.073 26.2972C60.1638 27.0112 60.3973 27.409 60.3839 28.5307C60.3686 29.8379 59.3359 32.6336 56.9215 37.9059C54.0291 44.2216 51.6372 49.7776 51.6387 50.177C51.6418 50.9442 53.2686 53.0355 54.2175 53.4918C55.2722 53.9991 61.0896 53.9874 62.9266 53.474C63.3642 53.3519 63.9072 53.0695 64.1335 52.8468C65.0599 51.9346 68.013 46.6337 71.5212 39.5858C75.0505 32.4954 77.5801 27.9074 78.4168 27.0793C80.015 25.4975 81.9593 25.0216 82.562 26.0645C82.9557 26.7451 83.0702 29.0331 83.1985 38.7824C83.3462 50.0137 83.4086 50.8018 84.269 52.2839C84.5749 52.811 84.9004 53.1269 85.4076 53.3893C86.1031 53.7488 86.1857 53.7564 89.4316 53.7564C93.2188 53.7564 93.6416 53.6576 94.4358 52.5876C95.5464 51.092 95.6645 49.4074 95.6647 35.0782L95.6649 23.1199L94.6786 21.4461C94.1363 20.5255 93.3373 19.3349 92.9033 18.8003C90.4208 15.7422 86.0667 14.0334 81.3952 14.2839C77.8736 14.473 75.8292 15.1382 70.4706 17.8395L69.657 18.2496L67.8667 17.1377C65.3995 15.6056 64.6118 15.2547 62.2892 14.6535C60.6305 14.2243 57.2085 14.1592 55.3458 14.5213ZM300.969 14.9675C299.107 15.2677 297.441 15.8146 295.321 16.8214C294.081 17.4102 292.96 17.892 292.831 17.892C292.702 17.892 292.451 17.6642 292.272 17.3858C291.727 16.5301 289.712 15.8083 287.346 15.6213C286.096 15.5226 284.253 15.8139 283.295 16.2613C282.542 16.6136 282.059 17.5587 281.739 19.3162C281.507 20.5901 281.481 22.8572 281.481 40.7546C281.481 61.7522 281.531 63.5584 282.164 64.5601C282.824 65.6045 285.276 66.1723 288.658 66.0631C291.129 65.9834 292.006 65.7543 292.917 64.9504C293.261 64.6476 293.596 64.1705 293.701 63.8363C293.816 63.4687 293.918 61.2064 293.978 57.7371C294.031 54.7042 294.095 52.2225 294.119 52.2225C294.143 52.2225 294.843 52.5462 295.675 52.9418C297.52 53.8194 298.875 54.1215 300.966 54.1215C306.53 54.1215 311.059 51.4831 313.631 46.7441C315.772 42.7969 316.886 36.9018 316.444 31.8432C315.882 25.4019 313.602 20.305 310.139 17.7443C308.806 16.7569 307.374 16.1077 305.204 15.5032C303.206 14.9473 302.023 14.7974 300.969 14.9675ZM335.686 15.0978C334.517 15.3987 333.499 15.8625 332.137 16.7148C331.616 17.0403 331.044 17.3069 330.87 17.3072C330.693 17.3075 330.289 17.1085 329.971 16.8651C329.063 16.1724 328.372 15.9814 326.205 15.824C323.81 15.6501 321.812 15.8177 321.195 16.244C320.617 16.6445 320.235 17.4189 319.936 18.7979C319.704 19.8774 319.675 21.603 319.673 34.546C319.671 45.6654 319.716 49.3391 319.871 50.1773C320.103 51.4486 320.751 52.7454 321.351 53.1474C322.366 53.8276 328.831 53.8076 330.282 53.1194C331.126 52.7187 331.659 51.9766 331.977 50.7615C332.297 49.5416 332.514 44.2861 332.526 37.6138C332.533 32.3935 332.643 31.0923 333.172 30.0762C333.564 29.3192 335.096 27.7437 335.736 27.4362C336.147 27.2402 336.494 27.2219 337.889 27.3232C340.932 27.5439 341.694 27.3861 342.423 26.3847C342.959 25.6493 343.15 24.4582 343.143 21.9094C343.135 19.4465 342.932 17.8435 342.538 17.1402C342.239 16.6041 341.164 15.9752 339.558 15.3958C337.992 14.8306 337.015 14.7555 335.686 15.0978ZM357.681 15.116C351.391 16.3785 347.261 19.1184 344.799 23.6624C342.335 28.21 341.603 35.7831 343.042 41.8188C343.9 45.4109 345.26 47.7921 347.703 49.9737C350.176 52.1851 353.15 53.4351 357.423 54.0588C361.209 54.6115 367.595 53.8365 371.431 52.3584C373.496 51.5623 374.593 50.1072 375.013 47.6025C375.343 45.6389 374.674 43.2526 373.551 42.3764C373.041 41.9806 372.965 41.9659 371.751 42.0335C370.986 42.0763 369.949 42.2643 369.141 42.507C366.686 43.2437 365.15 43.4742 362.114 43.5601C359.397 43.6369 359.234 43.6257 358.429 43.3042C357.784 43.0472 357.349 42.7139 356.591 41.8916C354.911 40.0673 354.775 39.4151 356.006 39.0663C356.376 38.9612 359.175 38.8513 363.539 38.7703C373.266 38.5901 373.928 38.5025 375.133 37.2313C376.423 35.8709 376.832 33.2766 376.32 29.6757C375.286 22.3633 371.653 17.7164 365.589 15.9519C362.136 14.9467 359.77 14.6966 357.681 15.116ZM448.467 14.9838C446.993 15.1837 442.695 16.1408 441.496 16.5369C438.601 17.4918 436.443 18.9473 435.626 20.4938C435.255 21.1931 435.179 21.5481 435.131 22.784C435.043 24.9822 435.676 26.8808 436.835 27.899C437.308 28.314 437.402 28.3369 438.625 28.3311C439.866 28.3253 440.004 28.2888 442.127 27.403C444.784 26.2932 446.782 25.7857 448.912 25.6791C450.795 25.5845 451.706 25.7726 452.322 26.3829C452.846 26.9006 453.159 27.7099 453.027 28.1971C452.839 28.8949 451.806 29.2153 447.65 29.8677C443.018 30.5944 440.657 31.3019 438.544 32.5955C436.376 33.9232 434.538 36.2681 434.075 38.2995C433.805 39.4712 433.752 44.724 433.996 45.9573C434.199 46.9786 435.222 48.8403 436.221 49.9966C437.268 51.2119 438.506 52.1014 440.231 52.8766C442.275 53.7947 443.663 54.0501 446.543 54.0374C449.297 54.0254 450.604 53.8031 452.444 53.0335C453.128 52.7474 453.94 52.5146 454.253 52.5146C454.566 52.5146 455.553 52.7574 456.445 53.0542C458.001 53.5731 458.147 53.5942 460.195 53.602C462.212 53.6098 462.377 53.5882 463.295 53.195C464.432 52.7093 464.965 52.2276 465.264 51.419C465.548 50.6525 465.546 30.6373 465.259 26.9494C465.035 24.0284 464.808 23.0663 463.99 21.5601C462.049 17.9868 458.778 16.1264 452.803 15.1997C450.241 14.8027 449.923 14.7867 448.467 14.9838ZM114.759 15.1381C111.448 15.3404 106.974 16.5748 104.492 17.9707C102.251 19.2307 101.504 20.5046 101.504 23.0627C101.504 25.9615 102.872 28.5563 104.4 28.5563C105.162 28.5563 106.417 28.1776 108.325 27.3714C111.353 26.0927 113.393 25.5986 115.627 25.603C117.69 25.607 118.865 26.2496 119.092 27.4987C119.237 28.2921 118.973 28.8208 118.3 29.0807C117.99 29.2006 116.836 29.4313 115.735 29.5933C110.665 30.3398 108.541 30.8413 106.532 31.7665C103.37 33.2221 101.306 35.4515 100.237 38.5632C99.9684 39.3471 99.8692 40.0635 99.8125 41.631C99.7284 43.9604 99.9041 44.9943 100.714 46.9377C102.735 51.7899 107.485 54.3656 113.877 54.0755C116.046 53.9769 117.022 53.7653 118.787 53.0103C120.341 52.3457 121.139 52.3106 122.292 52.8564C123.521 53.4382 124.749 53.6834 126.437 53.6834C128.873 53.6834 130.894 53.0564 131.088 52.2401C131.345 51.1551 131.49 48.9248 131.665 43.3396C131.859 37.1735 131.684 27.6311 131.326 24.8247C130.815 20.8181 127.811 17.6319 123.062 16.0608C120.544 15.2278 117.971 14.9419 114.759 15.1381ZM225.215 15.1213C224.473 15.1832 223.041 15.4333 222.035 15.677C217.517 16.7708 214.149 18.6354 213.206 20.5651C212.874 21.2453 212.836 21.5319 212.841 23.2972C212.847 24.9858 212.898 25.3872 213.199 26.0892C213.641 27.1182 214.492 28.1391 215.201 28.4931C215.898 28.8402 216.422 28.7213 219.005 27.6293C221.309 26.6559 223.044 26.1406 225.04 25.8377C226.779 25.5736 228.675 25.6397 229.243 25.9839C229.729 26.2787 230.47 27.6976 230.492 28.3751C230.516 29.1141 230.191 29.2322 227.166 29.5835C224.048 29.9458 222.553 30.2194 220.646 30.7773C215.555 32.2664 212.533 34.9376 211.424 38.9285C211.028 40.3512 210.929 43.1287 211.222 44.5578C212.223 49.4299 215.932 52.9403 221.103 53.9084C222.121 54.0993 222.96 54.1411 224.733 54.0899C226.804 54.0301 227.189 53.9758 228.537 53.5539C229.361 53.2956 230.449 52.8577 230.954 52.5807C232.231 51.8801 232.532 51.8295 232.84 52.2645C233.761 53.5655 238.933 54.1567 241.025 53.2006C242.947 52.3237 243.272 50.9771 243.447 43.2381C243.544 38.8351 243.329 30.3213 243.055 27.8258C242.686 24.4442 241.981 22.0017 240.901 20.3449C238.697 16.9661 231.565 14.5911 225.215 15.1213ZM154.447 15.3349C153.144 15.604 151.538 16.1844 149.971 16.9525C149.246 17.3085 148.492 17.5998 148.298 17.5998C148.103 17.5998 147.612 17.3652 147.206 17.0783C146.234 16.3915 144.978 15.8695 143.813 15.669C142.045 15.3647 138.825 16.0308 137.696 16.9344L137.117 17.3972L136.995 20.0186C136.836 23.4189 136.836 45.8156 136.995 49.2143L137.117 51.8309L137.68 52.3081C139.414 53.7795 144.9 54.1453 147.415 52.9576C148.837 52.2859 149.13 51.2962 149.321 46.5251C149.4 44.5565 149.47 39.8891 149.478 36.1529L149.492 29.3597L150.749 28.4103C152.596 27.0148 153.626 26.515 154.66 26.5128C156.825 26.5084 157.25 28.2118 157.446 37.6868C157.624 46.2897 157.848 51.0657 158.101 51.6518C158.588 52.7787 160.476 53.5136 163.217 53.6434C166.165 53.7829 168.608 53.118 169.444 51.949C170.146 50.9674 170.204 49.8299 170.094 39.1477C169.96 25.9563 169.868 25.029 168.422 22.1912C166.601 18.6177 164.936 17.0948 161.563 15.9195C159.288 15.1268 156.547 14.9016 154.447 15.3349ZM200.54 15.7138C198.889 15.8768 197.112 16.377 196.499 16.8515C196.083 17.1731 195.979 17.3871 195.85 18.1841C195.766 18.7064 195.658 23.6831 195.609 29.2438L195.521 39.3535L193.961 40.7548C192.342 42.2095 191.449 42.7182 190.503 42.7235C189.792 42.7277 188.975 42.3197 188.417 41.6822C187.552 40.6932 187.495 40.0593 187.341 29.798C187.194 20.0136 187.095 18.4228 186.571 17.4721C185.928 16.3047 183.343 15.6177 180.031 15.7335C177.418 15.825 175.747 16.3819 175.245 17.3278C174.929 17.9235 174.725 23.3382 174.728 31.1128C174.73 38.5943 174.868 41.8342 175.278 44.0701C176.301 49.6433 180.546 53.5239 186.278 54.1249C189.029 54.4137 191.924 53.8189 194.832 52.3675C195.636 51.9664 196.4 51.6382 196.53 51.6382C196.66 51.6382 197.207 51.9659 197.747 52.3664C199.522 53.6854 202.304 54.1086 205.024 53.4738C207.025 53.0068 207.546 52.2258 207.86 49.225C208.302 45.0046 208.179 21.2271 207.703 18.8415C207.473 17.6845 206.93 16.716 206.33 16.3918C205.314 15.8424 202.535 15.5169 200.54 15.7138ZM422.505 15.7118C420.301 15.9763 419.147 16.5478 418.611 17.6401C417.866 19.1591 417.823 20.0481 417.823 34.6189C417.823 48.9528 417.863 49.872 418.552 51.573C419.183 53.1367 420.409 53.6102 423.819 53.6102C425.691 53.6102 426.212 53.5579 427.213 53.2698C428.85 52.799 429.663 52.3364 429.887 51.7503C430.191 50.9567 430.408 34.2035 430.224 25.9997C430.028 17.3139 429.952 16.8981 428.418 16.2337C428.009 16.0573 424.049 15.5108 423.63 15.5731C423.561 15.5834 423.054 15.6457 422.505 15.7118ZM361.856 25.6224C362.566 25.9579 363.314 26.7912 363.802 27.7875C364.351 28.9145 363.861 29.1913 361.015 29.3633C359.505 29.4543 356.111 29.2674 355.53 29.0613C355.379 29.0075 355.255 28.8493 355.255 28.7098C355.255 28.3384 356.735 26.4501 357.334 26.0536C358.675 25.1702 360.525 24.9938 361.856 25.6224ZM300.73 26.867C302.506 27.8311 303.101 29.8149 303.096 34.7651C303.094 39.7473 302.451 41.5932 300.395 42.5233C299.702 42.8376 299.406 42.8944 298.835 42.8218C297.42 42.6425 296.074 41.7352 294.989 40.2324C294.114 39.0193 293.983 38.1429 294.05 34.0347C294.117 30.0588 294.174 29.8726 295.859 28.2559C297.642 26.5464 299.279 26.0798 300.73 26.867ZM396.738 26.8955C397.72 27.3479 398.994 28.4802 399.446 29.2983C399.907 30.1349 400.125 32.6202 400.02 35.8607C399.922 38.8654 399.754 39.6145 398.975 40.5234C398.244 41.3785 396.688 42.4027 395.725 42.6619C394.676 42.9442 393.851 42.7762 393.036 42.113C391.736 41.0563 391.217 39.1092 391.213 35.2764C391.208 31.3693 391.8 28.5823 392.854 27.5557C393.956 26.4826 395.335 26.2483 396.738 26.8955ZM118.611 38.8705C118.965 38.9964 119.224 40.0319 119.097 40.8138C118.75 42.9587 116.848 44.1342 114.218 43.83C113.04 43.6938 112.447 43.2368 112.304 42.3564C112.083 40.9869 112.7 39.9307 114.012 39.4378C115.254 38.9715 117.956 38.638 118.611 38.8705ZM230.232 38.8743C230.467 38.9325 230.645 39.1428 230.76 39.499C231.401 41.4808 228.243 44.1882 225.499 44.0091C224.327 43.9326 223.739 43.4582 223.492 42.3913C223.196 41.1139 223.773 40.1247 225.169 39.5171C226.352 39.0024 229.26 38.6331 230.232 38.8743ZM452.678 39.0033C453.063 39.36 453.156 40.4086 452.879 41.2882C452.277 43.2054 449.359 44.4697 447.342 43.6887C446.605 43.4041 446.342 42.9671 446.216 41.8184C446.013 39.9701 446.467 39.619 450.016 38.8818C450.821 38.7145 452.447 38.7888 452.678 39.0033Z"
    fill="#F2F2F2" />
</svg>
